<mxfile host="www.draw.io" modified="2023-04-21T17:20:38.162Z" agent="Mozilla/5.0 (Windows NT 10.0; Win64; x64) AppleWebKit/537.36 (KHTML, like Gecko) Chrome/112.0.0.0 Safari/537.36 Edg/112.0.1722.48" etag="wDF5HNV7QeSxLqQ05shs" version="21.2.1" type="device">
  <diagram name="Page-1" id="B4Cg7c6wMvnq1LwiqHa2">
    <mxGraphModel dx="993" dy="573" grid="1" gridSize="10" guides="1" tooltips="1" connect="1" arrows="1" fold="1" page="1" pageScale="1" pageWidth="850" pageHeight="1100" math="0" shadow="0">
      <root>
        <mxCell id="0" />
        <mxCell id="1" parent="0" />
        <mxCell id="h9tCkqZ97nl_PeBMGzEw-1" value="Book Popularity" style="shape=umlFrame;whiteSpace=wrap;html=1;pointerEvents=0;width=160;height=50;" vertex="1" parent="1">
          <mxGeometry x="80" y="40" width="690" height="410" as="geometry" />
        </mxCell>
        <mxCell id="h9tCkqZ97nl_PeBMGzEw-8" style="edgeStyle=orthogonalEdgeStyle;rounded=0;orthogonalLoop=1;jettySize=auto;html=1;entryX=0;entryY=0.5;entryDx=0;entryDy=0;" edge="1" parent="1" source="h9tCkqZ97nl_PeBMGzEw-2" target="h9tCkqZ97nl_PeBMGzEw-4">
          <mxGeometry relative="1" as="geometry" />
        </mxCell>
        <mxCell id="h9tCkqZ97nl_PeBMGzEw-2" value="" style="ellipse;html=1;shape=startState;fillColor=#000000;strokeColor=#ff0000;" vertex="1" parent="1">
          <mxGeometry x="150" y="140" width="30" height="30" as="geometry" />
        </mxCell>
        <mxCell id="h9tCkqZ97nl_PeBMGzEw-9" style="edgeStyle=orthogonalEdgeStyle;rounded=0;orthogonalLoop=1;jettySize=auto;html=1;entryX=0;entryY=0.5;entryDx=0;entryDy=0;" edge="1" parent="1" source="h9tCkqZ97nl_PeBMGzEw-4" target="h9tCkqZ97nl_PeBMGzEw-5">
          <mxGeometry relative="1" as="geometry" />
        </mxCell>
        <mxCell id="h9tCkqZ97nl_PeBMGzEw-12" style="edgeStyle=orthogonalEdgeStyle;rounded=0;orthogonalLoop=1;jettySize=auto;html=1;entryX=0;entryY=0.5;entryDx=0;entryDy=0;" edge="1" parent="1" source="h9tCkqZ97nl_PeBMGzEw-4" target="h9tCkqZ97nl_PeBMGzEw-6">
          <mxGeometry relative="1" as="geometry">
            <Array as="points">
              <mxPoint x="330" y="273" />
            </Array>
          </mxGeometry>
        </mxCell>
        <mxCell id="h9tCkqZ97nl_PeBMGzEw-14" style="edgeStyle=orthogonalEdgeStyle;rounded=0;orthogonalLoop=1;jettySize=auto;html=1;entryX=0;entryY=0.5;entryDx=0;entryDy=0;" edge="1" parent="1" source="h9tCkqZ97nl_PeBMGzEw-4" target="h9tCkqZ97nl_PeBMGzEw-7">
          <mxGeometry relative="1" as="geometry">
            <Array as="points">
              <mxPoint x="310" y="375" />
            </Array>
          </mxGeometry>
        </mxCell>
        <mxCell id="h9tCkqZ97nl_PeBMGzEw-4" value="Unpopular" style="rounded=0;whiteSpace=wrap;html=1;" vertex="1" parent="1">
          <mxGeometry x="270" y="132.5" width="120" height="45" as="geometry" />
        </mxCell>
        <mxCell id="h9tCkqZ97nl_PeBMGzEw-10" style="edgeStyle=orthogonalEdgeStyle;rounded=0;orthogonalLoop=1;jettySize=auto;html=1;entryX=0.5;entryY=0;entryDx=0;entryDy=0;" edge="1" parent="1" source="h9tCkqZ97nl_PeBMGzEw-5" target="h9tCkqZ97nl_PeBMGzEw-6">
          <mxGeometry relative="1" as="geometry" />
        </mxCell>
        <mxCell id="h9tCkqZ97nl_PeBMGzEw-13" style="edgeStyle=orthogonalEdgeStyle;rounded=0;orthogonalLoop=1;jettySize=auto;html=1;entryX=0.5;entryY=0;entryDx=0;entryDy=0;" edge="1" parent="1" source="h9tCkqZ97nl_PeBMGzEw-5" target="h9tCkqZ97nl_PeBMGzEw-4">
          <mxGeometry relative="1" as="geometry">
            <Array as="points">
              <mxPoint x="530" y="80" />
              <mxPoint x="330" y="80" />
            </Array>
          </mxGeometry>
        </mxCell>
        <mxCell id="h9tCkqZ97nl_PeBMGzEw-15" style="edgeStyle=orthogonalEdgeStyle;rounded=0;orthogonalLoop=1;jettySize=auto;html=1;entryX=0.5;entryY=1;entryDx=0;entryDy=0;" edge="1" parent="1" source="h9tCkqZ97nl_PeBMGzEw-5" target="h9tCkqZ97nl_PeBMGzEw-7">
          <mxGeometry relative="1" as="geometry">
            <Array as="points">
              <mxPoint x="640" y="155" />
              <mxPoint x="640" y="410" />
              <mxPoint x="405" y="410" />
            </Array>
          </mxGeometry>
        </mxCell>
        <mxCell id="h9tCkqZ97nl_PeBMGzEw-5" value="Popular" style="rounded=0;whiteSpace=wrap;html=1;" vertex="1" parent="1">
          <mxGeometry x="470" y="132.5" width="120" height="45" as="geometry" />
        </mxCell>
        <mxCell id="h9tCkqZ97nl_PeBMGzEw-11" style="edgeStyle=orthogonalEdgeStyle;rounded=0;orthogonalLoop=1;jettySize=auto;html=1;entryX=1;entryY=0.5;entryDx=0;entryDy=0;" edge="1" parent="1" source="h9tCkqZ97nl_PeBMGzEw-6" target="h9tCkqZ97nl_PeBMGzEw-7">
          <mxGeometry relative="1" as="geometry">
            <Array as="points">
              <mxPoint x="530" y="375" />
            </Array>
          </mxGeometry>
        </mxCell>
        <mxCell id="h9tCkqZ97nl_PeBMGzEw-16" style="edgeStyle=orthogonalEdgeStyle;rounded=0;orthogonalLoop=1;jettySize=auto;html=1;entryX=0.75;entryY=1;entryDx=0;entryDy=0;" edge="1" parent="1" source="h9tCkqZ97nl_PeBMGzEw-6" target="h9tCkqZ97nl_PeBMGzEw-4">
          <mxGeometry relative="1" as="geometry">
            <Array as="points">
              <mxPoint x="500" y="230" />
              <mxPoint x="360" y="230" />
            </Array>
          </mxGeometry>
        </mxCell>
        <mxCell id="h9tCkqZ97nl_PeBMGzEw-17" style="edgeStyle=orthogonalEdgeStyle;rounded=0;orthogonalLoop=1;jettySize=auto;html=1;entryX=0.75;entryY=1;entryDx=0;entryDy=0;" edge="1" parent="1" source="h9tCkqZ97nl_PeBMGzEw-6" target="h9tCkqZ97nl_PeBMGzEw-5">
          <mxGeometry relative="1" as="geometry">
            <Array as="points">
              <mxPoint x="560" y="230" />
              <mxPoint x="560" y="230" />
            </Array>
          </mxGeometry>
        </mxCell>
        <mxCell id="h9tCkqZ97nl_PeBMGzEw-6" value="Trending" style="rounded=0;whiteSpace=wrap;html=1;" vertex="1" parent="1">
          <mxGeometry x="470" y="250" width="120" height="45" as="geometry" />
        </mxCell>
        <mxCell id="h9tCkqZ97nl_PeBMGzEw-7" value="" style="ellipse;html=1;shape=endState;fillColor=#000000;strokeColor=#ff0000;" vertex="1" parent="1">
          <mxGeometry x="390" y="360" width="30" height="30" as="geometry" />
        </mxCell>
      </root>
    </mxGraphModel>
  </diagram>
</mxfile>
